<mxfile host="app.diagrams.net" agent="Mozilla/5.0 (X11; Linux x86_64; rv:138.0) Gecko/20100101 Firefox/138.0" version="27.0.6">
  <diagram name="PÃ¡gina-1" id="ydqloKGUhWmDJYXuvUor">
    <mxGraphModel dx="1246" dy="616" grid="1" gridSize="10" guides="1" tooltips="1" connect="1" arrows="1" fold="1" page="1" pageScale="1" pageWidth="850" pageHeight="1100" math="0" shadow="0">
      <root>
        <mxCell id="0" />
        <mxCell id="1" parent="0" />
        <mxCell id="IhQuMt_4eHAoTXX16pLc-1" value="&lt;div&gt;Core&lt;/div&gt;" style="shape=module;align=left;spacingLeft=20;align=center;verticalAlign=top;whiteSpace=wrap;html=1;" vertex="1" parent="1">
          <mxGeometry x="40" y="150" width="100" height="50" as="geometry" />
        </mxCell>
        <mxCell id="IhQuMt_4eHAoTXX16pLc-8" value="" style="edgeStyle=orthogonalEdgeStyle;rounded=0;orthogonalLoop=1;jettySize=auto;html=1;" edge="1" parent="1" source="IhQuMt_4eHAoTXX16pLc-2" target="IhQuMt_4eHAoTXX16pLc-1">
          <mxGeometry relative="1" as="geometry" />
        </mxCell>
        <mxCell id="IhQuMt_4eHAoTXX16pLc-2" value="&lt;div&gt;Group&lt;/div&gt;" style="shape=module;align=left;spacingLeft=20;align=center;verticalAlign=top;whiteSpace=wrap;html=1;" vertex="1" parent="1">
          <mxGeometry x="80" y="240" width="100" height="50" as="geometry" />
        </mxCell>
        <mxCell id="IhQuMt_4eHAoTXX16pLc-9" value="" style="edgeStyle=orthogonalEdgeStyle;rounded=0;orthogonalLoop=1;jettySize=auto;html=1;" edge="1" parent="1" source="IhQuMt_4eHAoTXX16pLc-3" target="IhQuMt_4eHAoTXX16pLc-2">
          <mxGeometry relative="1" as="geometry" />
        </mxCell>
        <mxCell id="IhQuMt_4eHAoTXX16pLc-3" value="Family" style="shape=module;align=left;spacingLeft=20;align=center;verticalAlign=top;whiteSpace=wrap;html=1;" vertex="1" parent="1">
          <mxGeometry x="100" y="330" width="100" height="50" as="geometry" />
        </mxCell>
        <mxCell id="IhQuMt_4eHAoTXX16pLc-10" value="" style="edgeStyle=orthogonalEdgeStyle;rounded=0;orthogonalLoop=1;jettySize=auto;html=1;" edge="1" parent="1" source="IhQuMt_4eHAoTXX16pLc-4" target="IhQuMt_4eHAoTXX16pLc-3">
          <mxGeometry relative="1" as="geometry" />
        </mxCell>
        <mxCell id="IhQuMt_4eHAoTXX16pLc-14" value="" style="edgeStyle=orthogonalEdgeStyle;rounded=0;orthogonalLoop=1;jettySize=auto;html=1;entryX=0.61;entryY=1.02;entryDx=0;entryDy=0;entryPerimeter=0;" edge="1" parent="1" source="IhQuMt_4eHAoTXX16pLc-4" target="IhQuMt_4eHAoTXX16pLc-5">
          <mxGeometry relative="1" as="geometry">
            <mxPoint x="550" y="270" as="targetPoint" />
          </mxGeometry>
        </mxCell>
        <mxCell id="IhQuMt_4eHAoTXX16pLc-4" value="Production" style="shape=module;align=left;spacingLeft=20;align=center;verticalAlign=top;whiteSpace=wrap;html=1;" vertex="1" parent="1">
          <mxGeometry x="170" y="420" width="100" height="50" as="geometry" />
        </mxCell>
        <mxCell id="IhQuMt_4eHAoTXX16pLc-5" value="&lt;div&gt;Product&lt;/div&gt;" style="shape=module;align=left;spacingLeft=20;align=center;verticalAlign=top;whiteSpace=wrap;html=1;" vertex="1" parent="1">
          <mxGeometry x="230" y="150" width="100" height="50" as="geometry" />
        </mxCell>
        <mxCell id="IhQuMt_4eHAoTXX16pLc-16" value="" style="edgeStyle=orthogonalEdgeStyle;rounded=0;orthogonalLoop=1;jettySize=auto;html=1;" edge="1" parent="1" source="IhQuMt_4eHAoTXX16pLc-6" target="IhQuMt_4eHAoTXX16pLc-4">
          <mxGeometry relative="1" as="geometry" />
        </mxCell>
        <mxCell id="IhQuMt_4eHAoTXX16pLc-6" value="&lt;div&gt;Certification&lt;/div&gt;" style="shape=module;align=left;spacingLeft=20;align=center;verticalAlign=top;whiteSpace=wrap;html=1;" vertex="1" parent="1">
          <mxGeometry x="210" y="500" width="100" height="50" as="geometry" />
        </mxCell>
      </root>
    </mxGraphModel>
  </diagram>
</mxfile>
